<svg width="26" height="25" viewBox="0 0 26 25" fill="none" xmlns="http://www.w3.org/2000/svg">
<path d="M24.837 18.3475L21.2701 14.8586C19.9962 13.6126 17.8306 14.1111 17.321 15.7308C16.9389 16.8523 15.665 17.4753 14.5185 17.2261C11.9707 16.603 8.53116 13.3634 7.89421 10.7468C7.51205 9.62536 8.27638 8.37935 9.42289 8.0056C11.079 7.50719 11.5885 5.38898 10.3146 4.14297L6.74771 0.654154C5.72859 -0.218051 4.19992 -0.218051 3.30819 0.654154L0.887787 3.02157C-1.53262 5.51358 1.14257 12.1174 7.12988 17.9737C13.1172 23.8299 19.8688 26.5712 22.4166 24.0791L24.837 21.7117C25.7288 20.7149 25.7288 19.2197 24.837 18.3475Z" fill="white"/>
</svg>
<svg width="26" height="25" viewBox="0 0 26 25" fill="none" xmlns="http://www.w3.org/2000/svg">
<path d="M24.837 18.3475L21.2701 14.8586C19.9962 13.6126 17.8306 14.1111 17.321 15.7308C16.9389 16.8523 15.665 17.4753 14.5185 17.2261C11.9707 16.603 8.53116 13.3634 7.89421 10.7468C7.51205 9.62536 8.27638 8.37935 9.42289 8.0056C11.079 7.50719 11.5885 5.38898 10.3146 4.14297L6.74771 0.654154C5.72859 -0.218051 4.19992 -0.218051 3.30819 0.654154L0.887787 3.02157C-1.53262 5.51358 1.14257 12.1174 7.12988 17.9737C13.1172 23.8299 19.8688 26.5712 22.4166 24.0791L24.837 21.7117C25.7288 20.7149 25.7288 19.2197 24.837 18.3475Z" fill="white"/>
</svg>
<svg width="26" height="25" viewBox="0 0 26 25" fill="none" xmlns="http://www.w3.org/2000/svg">
<path d="M24.837 18.3475L21.2701 14.8586C19.9962 13.6126 17.8306 14.1111 17.321 15.7308C16.9389 16.8523 15.665 17.4753 14.5185 17.2261C11.9707 16.603 8.53116 13.3634 7.89421 10.7468C7.51205 9.62536 8.27638 8.37935 9.42289 8.0056C11.079 7.50719 11.5885 5.38898 10.3146 4.14297L6.74771 0.654154C5.72859 -0.218051 4.19992 -0.218051 3.30819 0.654154L0.887787 3.02157C-1.53262 5.51358 1.14257 12.1174 7.12988 17.9737C13.1172 23.8299 19.8688 26.5712 22.4166 24.0791L24.837 21.7117C25.7288 20.7149 25.7288 19.2197 24.837 18.3475Z" fill="white"/>
</svg>
<svg width="26" height="25" viewBox="0 0 26 25" fill="none" xmlns="http://www.w3.org/2000/svg">
<path d="M24.837 18.3475L21.2701 14.8586C19.9962 13.6126 17.8306 14.1111 17.321 15.7308C16.9389 16.8523 15.665 17.4753 14.5185 17.2261C11.9707 16.603 8.53116 13.3634 7.89421 10.7468C7.51205 9.62536 8.27638 8.37935 9.42289 8.0056C11.079 7.50719 11.5885 5.38898 10.3146 4.14297L6.74771 0.654154C5.72859 -0.218051 4.19992 -0.218051 3.30819 0.654154L0.887787 3.02157C-1.53262 5.51358 1.14257 12.1174 7.12988 17.9737C13.1172 23.8299 19.8688 26.5712 22.4166 24.0791L24.837 21.7117C25.7288 20.7149 25.7288 19.2197 24.837 18.3475Z" fill="white"/>
</svg>
