<svg width="20" height="25" viewBox="0 0 20 25" fill="none" xmlns="http://www.w3.org/2000/svg">
<path d="M9.55027 0C4.28422 0 0 4.36136 0 9.72223C0 12.3264 1.54982 15.6706 4.6064 19.6616C6.00676 21.4854 7.52327 23.2135 9.14613 24.8349C9.25494 24.9409 9.3997 25 9.55027 25C9.70083 25 9.84559 24.9409 9.9544 24.8349C11.5773 23.2135 13.0938 21.4854 14.4941 19.6616C17.5507 15.6706 19.1005 12.3264 19.1005 9.72223C19.1005 4.36136 14.8163 0 9.55027 0ZM9.55027 16.6667C5.78863 16.6667 2.72865 13.5516 2.72865 9.72223C2.72865 5.89286 5.78863 2.77778 9.55027 2.77778C13.3119 2.77778 16.3719 5.89286 16.3719 9.72223C16.3719 13.5516 13.3119 16.6667 9.55027 16.6667Z" fill="#FFFEFE" fill-opacity="0.93"/>
<path d="M14.2315 8.88478L9.94366 4.91651C9.83603 4.81691 9.6958 4.76172 9.55034 4.76172C9.40489 4.76172 9.26466 4.81691 9.15703 4.91651L4.86916 8.88478C4.76926 8.97725 4.70387 9.10206 4.68406 9.23803C4.66426 9.374 4.69126 9.51275 4.7605 9.63076C4.81513 9.7206 4.89169 9.79451 4.98271 9.84528C5.07374 9.89605 5.17614 9.92194 5.27992 9.92044H5.84718V13.6903C5.84718 13.8482 5.90879 13.9996 6.01844 14.1112C6.1281 14.2228 6.27682 14.2855 6.43189 14.2855H7.79622C7.95129 14.2855 8.10001 14.2228 8.20967 14.1112C8.31932 13.9996 8.38093 13.8482 8.38093 13.6903V11.5077C8.38093 11.3499 8.44253 11.1985 8.55218 11.0868C8.66184 10.9752 8.81056 10.9125 8.96563 10.9125H10.1351C10.2901 10.9125 10.4389 10.9752 10.5485 11.0868C10.6582 11.1985 10.7198 11.3499 10.7198 11.5077V13.6903C10.7198 13.8482 10.7814 13.9996 10.891 14.1112C11.0007 14.2228 11.1494 14.2855 11.3045 14.2855H12.6688C12.8239 14.2855 12.9726 14.2228 13.0822 14.1112C13.1919 13.9996 13.2535 13.8482 13.2535 13.6903V9.92044H13.8208C13.9246 9.92194 14.0269 9.89605 14.118 9.84528C14.209 9.79451 14.2856 9.7206 14.3402 9.63076C14.4094 9.51275 14.4364 9.374 14.4166 9.23803C14.3968 9.10206 14.3314 8.97725 14.2315 8.88478V8.88478Z" fill="#FFFEFE" fill-opacity="0.93"/>
</svg>
