<svg width="30" height="30" viewBox="0 0 30 30" fill="none" xmlns="http://www.w3.org/2000/svg">
<path d="M29.1832 22.017L24.9966 17.8304C23.5014 16.3352 20.9596 16.9333 20.3615 18.877C19.9129 20.2228 18.4177 20.9704 17.072 20.6713C14.0816 19.9237 10.0445 16.0361 9.29693 12.8962C8.84837 11.5504 9.74549 10.0552 11.0912 9.60673C13.035 9.00864 13.633 6.46679 12.1378 4.97158L7.95124 0.784986C6.75507 -0.261662 4.96082 -0.261662 3.91417 0.784986L1.07327 3.62589C-1.76763 6.61631 1.37232 14.5409 8.39981 21.5684C15.4273 28.5959 23.3519 31.8854 26.3423 28.8949L29.1832 26.054C30.2299 24.8579 30.2299 23.0636 29.1832 22.017Z" fill="#D94F2B"/>
</svg>
